<svg width="32" height="32" viewBox="0 0 32 32" fill="none" xmlns="http://www.w3.org/2000/svg">
<path fill-rule="evenodd" clip-rule="evenodd" d="M1.48267 5.5556C2.37619 3.80196 3.80196 2.37619 5.5556 1.48267C9.43546 -0.494222 22.5645 -0.494222 26.4444 1.48267C28.198 2.37619 29.6238 3.80196 30.5173 5.5556C32.4942 9.43546 32.4942 22.5645 30.5173 26.4444C29.6238 28.198 28.198 29.6238 26.4444 30.5173C22.5645 32.4942 9.43546 32.4942 5.5556 30.5173C3.80196 29.6238 2.37619 28.198 1.48267 26.4444C-0.494222 22.5645 -0.494222 9.43546 1.48267 5.5556ZM9.51037 3.69015C11.2257 3.55 12.0834 3.47992 12.5383 3.79151C12.9917 4.10211 13.2621 4.68642 13.2054 5.23308C13.1486 5.78148 12.506 6.42406 11.2209 7.70922L7.52339 11.4067C5.41551 13.5146 5.41552 16.9321 7.5234 19.04C9.63128 21.1479 13.0488 21.1479 15.1567 19.04L19.0335 15.1632C19.9886 14.2081 21.5206 14.1571 22.5371 15.0465C23.6539 16.0238 23.7111 17.742 22.6617 18.7914C20.1818 21.2714 17.773 23.857 15.2026 26.243C13.8144 27.5316 11.4668 28.3937 9.57457 28.3097C9.43029 28.3033 9.56376 28.3142 9.51037 28.3099C8.14838 28.1986 7.45186 27.9969 6.96598 27.7493C5.79688 27.1536 4.84638 26.2031 4.25069 25.034C4.00313 24.5481 3.80143 23.8516 3.69015 22.4896C3.34955 18.3209 3.34955 13.6791 3.69015 9.51037C3.80143 8.14838 4.00313 7.45186 4.25069 6.96598C4.84638 5.79689 5.79689 4.84638 6.96598 4.25069C7.45186 4.00313 8.14838 3.80142 9.51037 3.69015ZM21.0067 24.8399C20.2344 25.6122 19.8482 25.9983 19.7302 26.3147C19.4389 27.0947 19.8746 28.036 20.6577 28.3189C20.9753 28.4336 21.4801 28.3923 22.4896 28.3099C23.8516 28.1986 24.5481 27.9969 25.034 27.7493C26.2031 27.1536 27.1536 26.2031 27.7493 25.034C27.9969 24.5481 28.1986 23.8516 28.3099 22.4896C28.6505 18.3209 28.6505 13.6791 28.3099 9.51037C28.1986 8.14838 27.9969 7.45186 27.7493 6.96598C27.1536 5.79688 26.2031 4.84638 25.034 4.25069C24.5481 4.00313 23.8516 3.80142 22.4896 3.69015C20.7347 3.54676 19.0365 4.28701 17.7914 5.53206L9.72011 13.6034C8.82544 14.4981 8.82545 15.9486 9.72011 16.8433C10.6148 17.738 12.0653 17.738 12.96 16.8433L16.8368 12.9665C18.9484 10.8549 22.3354 10.7421 24.5828 12.7086C27.0521 14.8692 27.1786 18.668 24.8585 20.9881L21.0067 24.8399Z" fill="#99D52A"/>
<path fill-rule="evenodd" clip-rule="evenodd" d="M21.0078 24.8402L24.8596 20.9884C27.1797 18.6683 27.0532 14.8695 24.5839 12.7089C22.3365 10.7424 18.9495 10.8552 16.8379 12.9668L12.9611 16.8436C12.0664 17.7383 10.6159 17.7383 9.72121 16.8436C8.82654 15.9489 8.82654 14.4984 9.72121 13.6037L17.7925 5.53237C19.0376 4.28732 20.7358 3.54708 22.4907 3.69046C23.8527 3.80174 24.5492 4.00344 25.0351 4.251C26.2042 4.84669 27.1547 5.7972 27.7504 6.9663C27.998 7.45217 28.1997 8.14869 28.311 9.51068C28.6516 13.6794 28.6516 18.3212 28.311 22.4899C28.1997 23.8519 27.998 24.5485 27.7504 25.0343C27.1547 26.2034 26.2042 27.1539 25.0351 27.7496C24.5492 27.9972 23.8527 28.1989 22.4907 28.3102C21.4812 28.3926 20.9764 28.4339 20.6588 28.3192C19.8757 28.0364 19.44 27.095 19.7313 26.315C19.8493 25.9986 20.2355 25.6125 21.0078 24.8402Z" fill="#2B3711"/>
<path d="M7.52449 11.407L11.222 7.70953C12.5071 6.42437 13.1497 5.78179 13.2065 5.23339C13.2632 4.68673 12.9928 4.10242 12.5393 3.79182C12.0845 3.48023 11.2268 3.55031 9.51147 3.69046C8.14947 3.80174 7.45296 4.00344 6.96708 4.251C5.79798 4.84669 4.84747 5.7972 4.25179 6.9663C4.00422 7.45217 3.80252 8.14869 3.69124 9.51068C3.35064 13.6794 3.35064 18.3212 3.69124 22.4899C3.80252 23.8519 4.00422 24.5485 4.25179 25.0343C4.84747 26.2034 5.79798 27.1539 6.96708 27.7496C7.45296 27.9972 8.14947 28.1989 9.51147 28.3102C9.56486 28.3145 9.43138 28.3036 9.57567 28.31C11.4679 28.394 13.8155 27.5319 15.2037 26.2433C17.7741 23.8573 20.1829 21.2717 22.6628 18.7917C23.7122 17.7423 23.655 16.0241 22.5381 15.0468C21.5217 14.1574 19.9897 14.2084 19.0346 15.1635L15.1578 19.0403C13.0499 21.1482 9.63237 21.1482 7.52449 19.0403C5.41661 16.9324 5.4166 13.5149 7.52449 11.407Z" fill="#2B3711"/>
</svg>
