<svg width="135" height="32" viewBox="0 0 135 32" fill="none" xmlns="http://www.w3.org/2000/svg">
<path fill-rule="evenodd" clip-rule="evenodd" d="M1.48267 5.5556C2.37619 3.80196 3.80196 2.37619 5.5556 1.48267C9.43546 -0.494222 22.5645 -0.494222 26.4444 1.48267C28.198 2.37619 29.6238 3.80196 30.5173 5.5556C32.4942 9.43546 32.4942 22.5645 30.5173 26.4444C29.6238 28.198 28.198 29.6238 26.4444 30.5173C22.5645 32.4942 9.43546 32.4942 5.5556 30.5173C3.80196 29.6238 2.37619 28.198 1.48267 26.4444C-0.494222 22.5645 -0.494222 9.43546 1.48267 5.5556ZM9.51037 3.69015C11.2257 3.55 12.0834 3.47992 12.5383 3.79151C12.9917 4.10211 13.2621 4.68642 13.2054 5.23308C13.1486 5.78148 12.506 6.42406 11.2209 7.70922L7.52339 11.4067C5.41551 13.5146 5.41552 16.9321 7.5234 19.04C9.63128 21.1479 13.0488 21.1479 15.1567 19.04L19.0335 15.1632C19.9886 14.2081 21.5206 14.1571 22.5371 15.0465C23.6539 16.0238 23.7111 17.742 22.6617 18.7914C20.1818 21.2714 17.773 23.857 15.2026 26.243C13.8144 27.5316 11.4668 28.3937 9.57457 28.3097C9.43029 28.3033 9.56376 28.3142 9.51037 28.3099C8.14838 28.1986 7.45186 27.9969 6.96598 27.7493C5.79688 27.1536 4.84638 26.2031 4.25069 25.034C4.00313 24.5481 3.80143 23.8516 3.69015 22.4896C3.34955 18.3209 3.34955 13.6791 3.69015 9.51037C3.80143 8.14838 4.00313 7.45186 4.25069 6.96598C4.84638 5.79689 5.79689 4.84638 6.96598 4.25069C7.45186 4.00313 8.14838 3.80142 9.51037 3.69015ZM21.0067 24.8399C20.2344 25.6122 19.8482 25.9983 19.7302 26.3147C19.4389 27.0947 19.8746 28.036 20.6577 28.3189C20.9753 28.4336 21.4801 28.3923 22.4896 28.3099C23.8516 28.1986 24.5481 27.9969 25.034 27.7493C26.2031 27.1536 27.1536 26.2031 27.7493 25.034C27.9969 24.5481 28.1986 23.8516 28.3099 22.4896C28.6505 18.3209 28.6505 13.6791 28.3099 9.51037C28.1986 8.14838 27.9969 7.45186 27.7493 6.96598C27.1536 5.79688 26.2031 4.84638 25.034 4.25069C24.5481 4.00313 23.8516 3.80142 22.4896 3.69015C20.7347 3.54676 19.0365 4.28701 17.7914 5.53206L9.72011 13.6034C8.82544 14.4981 8.82545 15.9486 9.72011 16.8433C10.6148 17.738 12.0653 17.738 12.96 16.8433L16.8368 12.9665C18.9484 10.8549 22.3354 10.7421 24.5828 12.7086C27.0521 14.8692 27.1786 18.668 24.8585 20.9881L21.0067 24.8399Z" fill="#99D52A"/>
<path fill-rule="evenodd" clip-rule="evenodd" d="M21.0078 24.8402L24.8596 20.9884C27.1797 18.6683 27.0532 14.8695 24.5839 12.7089C22.3365 10.7424 18.9495 10.8552 16.8379 12.9668L12.9611 16.8436C12.0664 17.7383 10.6159 17.7383 9.72121 16.8436C8.82654 15.9489 8.82654 14.4984 9.72121 13.6037L17.7925 5.53237C19.0376 4.28732 20.7358 3.54708 22.4907 3.69046C23.8527 3.80174 24.5492 4.00344 25.0351 4.251C26.2042 4.84669 27.1547 5.7972 27.7504 6.9663C27.998 7.45217 28.1997 8.14869 28.311 9.51068C28.6516 13.6794 28.6516 18.3212 28.311 22.4899C28.1997 23.8519 27.998 24.5485 27.7504 25.0343C27.1547 26.2034 26.2042 27.1539 25.0351 27.7496C24.5492 27.9972 23.8527 28.1989 22.4907 28.3102C21.4812 28.3926 20.9764 28.4339 20.6588 28.3192C19.8757 28.0364 19.44 27.095 19.7313 26.315C19.8493 25.9986 20.2355 25.6125 21.0078 24.8402Z" fill="#2B3711"/>
<path d="M7.52449 11.407L11.222 7.70953C12.5071 6.42437 13.1497 5.78179 13.2065 5.23339C13.2632 4.68673 12.9928 4.10242 12.5393 3.79182C12.0845 3.48023 11.2268 3.55031 9.51147 3.69046C8.14947 3.80174 7.45296 4.00344 6.96708 4.251C5.79798 4.84669 4.84747 5.7972 4.25179 6.9663C4.00422 7.45217 3.80252 8.14869 3.69124 9.51068C3.35064 13.6794 3.35064 18.3212 3.69124 22.4899C3.80252 23.8519 4.00422 24.5485 4.25179 25.0343C4.84747 26.2034 5.79798 27.1539 6.96708 27.7496C7.45296 27.9972 8.14947 28.1989 9.51147 28.3102C9.56486 28.3145 9.43138 28.3036 9.57567 28.31C11.4679 28.394 13.8155 27.5319 15.2037 26.2433C17.7741 23.8573 20.1829 21.2717 22.6628 18.7917C23.7122 17.7423 23.655 16.0241 22.5381 15.0468C21.5217 14.1574 19.9897 14.2084 19.0346 15.1635L15.1578 19.0403C13.0499 21.1482 9.63237 21.1482 7.52449 19.0403C5.41661 16.9324 5.4166 13.5149 7.52449 11.407Z" fill="#2B3711"/>
<path d="M42.9151 25.7222H40V6.27778H44.2755L52.188 21.4722H52.7433V6.27778H55.6584V25.7222H51.3829L43.4704 10.5278H42.9151V25.7222Z" fill="#9AA299"/>
<path d="M64.6473 26C63.3517 26 62.1764 25.6944 61.1214 25.0833C60.0664 24.4537 59.2335 23.5926 58.6227 22.5C58.0305 21.3889 57.7343 20.1296 57.7343 18.7222C57.7343 17.3333 58.0305 16.0926 58.6227 15C59.2335 13.8889 60.0664 13.0278 61.1214 12.4167C62.1764 11.787 63.3517 11.4722 64.6473 11.4722C65.8874 11.4722 67.0072 11.7685 68.0067 12.3611C69.0246 12.9537 69.8205 13.7685 70.3943 14.8056C70.9866 15.8426 71.2827 17.0093 71.2827 18.3056C71.2827 18.9537 71.2364 19.4444 71.1439 19.7778H60.4829C60.6124 20.9074 61.0659 21.8333 61.8433 22.5556C62.6206 23.2593 63.5553 23.6111 64.6473 23.6111C65.4247 23.6111 66.1095 23.4352 66.7018 23.0833C67.2941 22.7315 67.7383 22.2778 68.0344 21.7222H70.894C70.4683 22.963 69.7187 23.9907 68.6452 24.8056C67.5717 25.6019 66.2391 26 64.6473 26ZM68.5619 17.6667C68.4694 16.5556 68.0622 15.6389 67.3404 14.9167C66.6185 14.1944 65.7208 13.8333 64.6473 13.8333C63.5368 13.8333 62.6021 14.1944 61.8433 14.9167C61.0844 15.6389 60.6309 16.5556 60.4829 17.6667H68.5619Z" fill="#9AA299"/>
<path d="M74.0284 25.7222H70.8634L75.5832 18.5833L71.0578 11.75H74.195L77.36 16.6111H77.9153L81.0525 11.75H84.2175L79.6921 18.5833L84.4118 25.7222H81.2191L77.9153 20.5833H77.36L74.0284 25.7222Z" fill="#9AA299"/>
<path d="M92.6865 26C91.1503 26 89.8084 25.7222 88.6609 25.1667C87.5133 24.6111 86.6342 23.8611 86.0234 22.9167C85.4126 21.9722 85.1072 20.9352 85.1072 19.8056H88.0223C88.0223 20.8056 88.4295 21.6481 89.2439 22.3333C90.0768 23.0185 91.2243 23.3611 92.6865 23.3611C94.1672 23.3611 95.2685 23.0833 95.9903 22.5278C96.7122 21.9537 97.0731 21.213 97.0731 20.3056C97.0731 18.787 96.0181 17.8426 93.9081 17.4722L90.3822 16.8056C87.1432 16.213 85.5237 14.5093 85.5237 11.6944C85.5237 10.6019 85.8013 9.62963 86.3565 8.77778C86.9118 7.90741 87.7077 7.23148 88.7442 6.75C89.7807 6.25 91.0022 6 92.4089 6C93.9266 6 95.2407 6.26852 96.3513 6.80556C97.4803 7.34259 98.341 8.08333 98.9332 9.02778C99.544 9.97222 99.8494 11.0278 99.8494 12.1944H96.9343C96.9343 11.5463 96.7492 10.9537 96.379 10.4167C96.0274 9.87963 95.5091 9.4537 94.8243 9.13889C94.1395 8.80556 93.3343 8.63889 92.4089 8.63889C91.1503 8.63889 90.1693 8.92593 89.466 9.5C88.7812 10.0741 88.4388 10.8056 88.4388 11.6944C88.4388 13.1019 89.4197 13.9907 91.3817 14.3611L94.4356 14.9167C96.379 15.2685 97.7857 15.8796 98.6556 16.75C99.544 17.6019 99.9882 18.787 99.9882 20.3056C99.9882 21.3981 99.7013 22.3796 99.1276 23.25C98.5723 24.1019 97.7394 24.7778 96.6289 25.2778C95.5369 25.7593 94.2228 26 92.6865 26Z" fill="#9AA299"/>
<path d="M106.403 26C105.422 26 104.552 25.8148 103.793 25.4444C103.034 25.0556 102.451 24.537 102.044 23.8889C101.637 23.2222 101.433 22.4815 101.433 21.6667C101.433 20.2963 101.905 19.2037 102.849 18.3889C103.793 17.5741 105.2 17.1667 107.069 17.1667H110.623V16.8056C110.623 15.8981 110.354 15.1759 109.818 14.6389C109.299 14.1019 108.587 13.8333 107.68 13.8333C106.81 13.8333 106.107 14.037 105.57 14.4444C105.033 14.8333 104.719 15.3056 104.626 15.8611H101.933C101.988 15.1019 102.248 14.3889 102.71 13.7222C103.173 13.037 103.83 12.4907 104.681 12.0833C105.533 11.6759 106.532 11.4722 107.68 11.4722C109.42 11.4722 110.799 11.9537 111.817 12.9167C112.853 13.8796 113.371 15.1759 113.371 16.8056V25.7222H110.984L110.706 24.1944H110.567C110.253 24.6574 109.725 25.0741 108.985 25.4444C108.244 25.8148 107.384 26 106.403 26ZM106.68 23.6389C107.902 23.6389 108.864 23.3056 109.568 22.6389C110.271 21.9537 110.623 21.0278 110.623 19.8611V19.3611H107.263C106.227 19.3611 105.45 19.5648 104.931 19.9722C104.432 20.3796 104.182 20.9074 104.182 21.5556C104.182 22.1852 104.395 22.6944 104.82 23.0833C105.265 23.4537 105.885 23.6389 106.68 23.6389Z" fill="#9AA299"/>
<path d="M118.814 25.7222H116.065V6.27778H118.814V25.7222Z" fill="#9AA299"/>
<path d="M127.675 26C126.379 26 125.204 25.6944 124.149 25.0833C123.094 24.4537 122.261 23.5926 121.65 22.5C121.058 21.3889 120.762 20.1296 120.762 18.7222C120.762 17.3333 121.058 16.0926 121.65 15C122.261 13.8889 123.094 13.0278 124.149 12.4167C125.204 11.787 126.379 11.4722 127.675 11.4722C128.915 11.4722 130.035 11.7685 131.034 12.3611C132.052 12.9537 132.848 13.7685 133.422 14.8056C134.014 15.8426 134.31 17.0093 134.31 18.3056C134.31 18.9537 134.264 19.4444 134.172 19.7778H123.511C123.64 20.9074 124.094 21.8333 124.871 22.5556C125.648 23.2593 126.583 23.6111 127.675 23.6111C128.452 23.6111 129.137 23.4352 129.729 23.0833C130.322 22.7315 130.766 22.2778 131.062 21.7222H133.922C133.496 22.963 132.746 23.9907 131.673 24.8056C130.599 25.6019 129.267 26 127.675 26ZM131.59 17.6667C131.497 16.5556 131.09 15.6389 130.368 14.9167C129.646 14.1944 128.748 13.8333 127.675 13.8333C126.564 13.8333 125.63 14.1944 124.871 14.9167C124.112 15.6389 123.659 16.5556 123.511 17.6667H131.59Z" fill="#9AA299"/>
</svg>
